<?xml version="1.0" standalone="no"?>
<!DOCTYPE svg PUBLIC "-//W3C//DTD SVG 20010904//EN"
 "http://www.w3.org/TR/2001/REC-SVG-20010904/DTD/svg10.dtd">
<svg version="1.0" xmlns="http://www.w3.org/2000/svg"
 width="108.000000pt" height="150.000000pt" viewBox="0 0 108.000000 150.000000"
 preserveAspectRatio="xMidYMid meet">

<g transform="translate(0.000000,150.000000) scale(0.100000,-0.100000)"
fill="#000000" stroke="none">
<path d="M0 750 l0 -750 540 0 540 0 0 750 0 750 -540 0 -540 0 0 -750z m287
290 c-2 -320 0 -372 13 -381 23 -15 200 -5 211 12 5 8 9 87 9 177 l0 162 213
-2 212 -3 0 -35 0 -35 -150 0 -150 0 -6 -30 c-4 -16 -7 -73 -7 -125 -2 -135
-4 -133 155 -129 l128 4 0 -35 0 -35 -125 4 c-111 3 -127 1 -140 -14 -12 -14
-16 -61 -20 -204 l-5 -186 -50 0 -50 0 -3 190 c-2 164 -5 192 -19 203 -12 8
-64 12 -172 12 l-156 0 2 403 c0 221 1 405 2 410 1 4 25 7 55 7 l54 0 -1 -370z"/>
</g>
</svg>
